<svg width="177" height="32" viewBox="0 0 177 32" fill="none" xmlns="http://www.w3.org/2000/svg">
<path fill-rule="evenodd" clip-rule="evenodd" d="M6.88856 22.4L25.1114 22.4C26.9088 22.4 27.9773 20.3953 26.9737 18.9061L21.3696 10.5901C20.48 9.26995 18.5348 9.26995 17.6452 10.5901L16 13.0314L14.3548 10.5901C13.4652 9.26995 11.52 9.26995 10.6304 10.5901L5.02633 18.9061C4.02272 20.3953 5.09118 22.4 6.88856 22.4ZM12.094 21.12L25.1114 21.12C25.8827 21.12 26.3411 20.2598 25.9105 19.6208L20.3065 11.3049C19.9247 10.7384 19.0901 10.7384 18.7083 11.3049L12.094 21.12Z" fill="white"/>
<path fill-rule="evenodd" clip-rule="evenodd" d="M0 6.4C0 2.86538 2.86538 0 6.4 0H25.6C29.1346 0 32 2.86538 32 6.4V25.6C32 29.1346 29.1346 32 25.6 32H6.4C2.86538 32 0 29.1346 0 25.6V6.4ZM6.4 1.28H25.6C28.4277 1.28 30.72 3.5723 30.72 6.4V25.6C30.72 28.4277 28.4277 30.72 25.6 30.72H6.4C3.5723 30.72 1.28 28.4277 1.28 25.6V6.4C1.28 3.5723 3.5723 1.28 6.4 1.28Z" fill="white"/>
<path fill-rule="evenodd" clip-rule="evenodd" d="M108.353 24.5739C109.332 25.2579 110.545 25.6004 111.992 25.6004C113.356 25.6004 114.546 25.2579 115.562 24.5739C116.578 23.8895 117.365 22.9588 117.924 21.7818C118.482 20.6053 118.761 19.2779 118.761 17.7999C118.761 16.3035 118.478 14.9714 117.91 13.8036C117.343 12.6267 116.541 11.7006 115.507 11.0253C114.482 10.3413 113.269 9.99937 111.868 9.99937C110.458 9.99937 109.273 10.3413 108.311 11.0253C108.254 11.0657 108.198 11.1072 108.143 11.1492V6.40039H104.855V25.1898H107.762V24.105C107.948 24.2724 108.145 24.4285 108.353 24.5739ZM107.762 17.7999C107.762 16.8328 107.886 15.9886 108.133 15.2678C108.389 14.5383 108.783 13.9726 109.314 13.5712C109.845 13.1606 110.531 12.9553 111.374 12.9553C112.262 12.9553 112.994 13.1739 113.571 13.6122C114.147 14.0407 114.573 14.6248 114.848 15.3635C115.122 16.0936 115.26 16.9055 115.26 17.7999C115.26 18.703 115.122 19.5241 114.848 20.2628C114.582 20.9929 114.17 21.5724 113.612 22.0009C113.053 22.4299 112.344 22.6444 111.483 22.6444C110.595 22.6444 109.877 22.4432 109.327 22.0419C108.787 21.6313 108.389 21.0615 108.133 20.3315C107.886 19.6014 107.762 18.7577 107.762 17.7999Z" fill="white"/>
<path d="M59.438 16.2128V25.1903H62.7474V15.3779C62.7474 13.7816 62.308 12.4951 61.4291 11.5188C60.5594 10.5338 59.3053 10.0408 57.6666 10.0408C56.6778 10.0408 55.7806 10.2599 54.975 10.6977C54.2167 11.1103 53.6043 11.676 53.1381 12.3953C52.775 11.7118 52.2613 11.164 51.5969 10.7524C50.8554 10.2784 49.9308 10.0408 48.823 10.0408C47.816 10.0408 46.9051 10.2646 46.0904 10.7115C45.6087 10.9731 45.1859 11.2941 44.8219 11.6734V9.67684H41.6L41.6 25.1903H44.8219V16.09C44.8219 15.1685 45.1887 14.42 45.6921 13.8456C46.2048 13.2707 46.8823 12.983 47.7245 12.983C48.5942 12.983 49.2809 13.2707 49.7843 13.8456C50.2879 14.42 50.5396 15.2233 50.5396 16.2538V25.1903H53.8352V16.09C53.8352 15.4419 53.9589 14.8854 54.206 14.42C54.3567 14.1313 54.5395 13.8866 54.7546 13.6854C54.8927 13.5564 55.044 13.4453 55.2085 13.3526C55.4833 13.1919 55.7815 13.0838 56.1031 13.0275C56.2743 12.9978 56.4522 12.983 56.6366 12.983C57.4972 12.983 58.1793 13.2707 58.6827 13.8456C59.1862 14.4108 59.438 15.2002 59.438 16.2128Z" fill="white"/>
<path fill-rule="evenodd" clip-rule="evenodd" d="M67.831 24.6282C68.9661 25.2758 70.2844 25.5999 71.7857 25.5999C73.2139 25.5999 74.5185 25.2303 75.6994 24.4915C76.8895 23.7523 77.7683 22.7166 78.336 21.385L75.0678 20.3995C74.7474 21.084 74.2895 21.6082 73.6945 21.9733C73.1086 22.3291 72.4083 22.5072 71.5935 22.5072C70.3301 22.5072 69.3689 22.0966 68.7098 21.2755C68.1921 20.6304 67.8777 19.7775 67.7666 18.7163H78.5007C78.6289 16.9465 78.432 15.4091 77.9102 14.1041C77.3884 12.7997 76.5874 11.7917 75.5071 11.0801C74.436 10.3593 73.1315 9.99885 71.5935 9.99885C70.1379 9.99885 68.8562 10.3275 67.7485 10.9843C66.6409 11.6412 65.7756 12.5673 65.1532 13.7622C64.5307 14.9483 64.2194 16.3485 64.2194 17.9637C64.2194 19.4596 64.5352 20.7825 65.1669 21.9323C65.8078 23.0816 66.6957 23.9806 67.831 24.6282ZM75.1916 16.7499C75.108 15.5299 74.8334 14.6115 74.3673 13.9951C73.8089 13.2559 72.9301 12.8862 71.7309 12.8862C70.376 12.8862 69.3689 13.306 68.7098 14.1456C68.2026 14.784 67.8907 15.6523 67.7737 16.7499H75.1916Z" fill="white"/>
<path d="M98.4959 25.1903V16.2128C98.4959 15.2002 98.2442 14.4108 97.7406 13.8451C97.237 13.2707 96.5551 12.983 95.6945 12.983C95.1636 12.983 94.6875 13.1064 94.2664 13.3526C93.8453 13.5896 93.5112 13.9454 93.2639 14.42C93.1636 14.6089 93.0838 14.8127 93.0242 15.0313C92.9721 15.2222 92.9355 15.425 92.9145 15.639C92.9002 15.7838 92.8932 15.9338 92.8932 16.0895V25.1903H89.5975V16.2538C89.5975 15.2227 89.3458 14.42 88.8422 13.8451C88.3387 13.2707 87.6521 12.983 86.7824 12.983C85.9402 12.983 85.2627 13.2707 84.7501 13.8451C84.2465 14.42 83.9948 15.168 83.9948 16.0895V25.1903H80.6579V10.2011H83.9456L83.9596 11.592C84.3052 11.248 84.7014 10.9541 85.1483 10.7115C85.963 10.2646 86.874 10.0408 87.881 10.0408C88.9886 10.0408 89.9133 10.2779 90.6548 10.7524C91.3192 11.164 91.833 11.7113 92.1962 12.3948C92.6625 11.676 93.2747 11.1103 94.0329 10.6977C94.8386 10.2599 95.7357 10.0408 96.7244 10.0408C98.3631 10.0408 99.6173 10.5333 100.487 11.5188C101.366 12.4951 101.805 13.7816 101.805 15.3779V25.1903H98.4959Z" fill="white"/>
<path fill-rule="evenodd" clip-rule="evenodd" d="M127.282 25.5999C125.781 25.5999 124.463 25.2758 123.327 24.6282C122.192 23.9806 121.304 23.0816 120.663 21.9323C120.032 20.7825 119.716 19.4596 119.716 17.9637C119.716 16.3485 120.027 14.9483 120.65 13.7622C121.272 12.5673 122.137 11.6412 123.245 10.9843C124.353 10.3275 125.634 9.99885 127.09 9.99885C128.628 9.99885 129.932 10.3593 131.004 11.0801C132.084 11.7917 132.885 12.7997 133.407 14.1041C133.928 15.4091 134.125 16.9465 133.997 18.7163H123.263C123.374 19.7775 123.689 20.6304 124.206 21.2755C124.865 22.0966 125.827 22.5072 127.09 22.5072C127.905 22.5072 128.605 22.3291 129.191 21.9733C129.786 21.6082 130.244 21.084 130.564 20.3995L133.832 21.385C133.265 22.7166 132.386 23.7523 131.196 24.4915C130.015 25.2303 128.71 25.5999 127.282 25.5999ZM129.864 13.9951C130.33 14.6115 130.605 15.5299 130.688 16.7499H123.27C123.387 15.6523 123.699 14.784 124.206 14.1456C124.865 13.306 125.872 12.8862 127.227 12.8862C128.427 12.8862 129.305 13.2559 129.864 13.9951Z" fill="white"/>
<path d="M136.154 10.9219V25.1652H139.442V18.2611C139.442 15.771 139.959 14.7922 141.364 14.0361C142.072 13.6086 144.426 13.6803 144.426 13.6803V10.9219H142.598C141.48 10.9219 139.825 11.7149 139.442 13.156V10.9219H136.154Z" fill="white"/>
<path d="M146.017 25.1898V7.51438H149.305V17.868L155.298 10.9219H159.431L157.125 13.6741L153.183 18.0559L159.431 25.1898H155.051L149.305 18.2611V25.1898H146.017Z" fill="white"/>
<path d="M164.293 10.9219H161.009V25.1898H164.293V10.9219Z" fill="white"/>
<path d="M161.009 6.46592V9.87343L164.297 9.07343V6.46592H161.009Z" fill="white"/>
<path d="M173.515 25.2072C174.482 25.2349 176.396 25.2072 176.396 25.2072V22.455H173.945C172.754 22.455 171.925 21.7342 171.925 20.6658V13.6864H176.396V10.9342H171.925V7.52667L168.637 8.32667V10.9342H165.875V13.6864H168.637V21.1332C168.637 23.6202 170.21 25.2072 173.515 25.2072Z" fill="white"/>
</svg>
