<svg width="537" height="135" viewBox="0 0 537 135" fill="none" xmlns="http://www.w3.org/2000/svg">
<path d="M57.1762 132.464L90.6019 42.8443L124.27 132.585C130.386 132.585 139.381 132.585 145.376 132.585C148.464 132.585 151.189 130.587 152.158 127.62L193.063 6.10352e-05L177.589 6.10352e-05C175.712 6.10352e-05 174.077 1.21114 173.592 3.02775L143.344 98.675C142.254 102.49 136.986 102.793 135.472 99.0989L100.957 11.8407H82.1243L45.3682 110.544L19.4378 28.9732H0L33.9236 132.525L34.1658 132.404C41.9772 132.404 49.6675 132.404 57.2367 132.404L57.1762 132.464Z" fill="#005BE4"/>
<path d="M214.838 25.5258H197.338V132.525C201.031 132.525 204.725 132.525 208.358 132.525C211.992 132.525 214.838 129.557 214.838 125.985V25.5864V25.5258Z" fill="#005BE4"/>
<path d="M324.017 25.5258H305.669L272.97 114.661L240.089 25.5258H221.257L261.101 131.98C266.975 131.919 272.728 131.798 278.42 131.677C281.992 131.616 285.141 129.376 286.413 126.045L324.077 25.5258H324.017Z" fill="#005BE4"/>
<path d="M422.598 99.2201C416.058 106.184 408.489 112.36 399.83 116.417C384.631 123.502 362.892 123.199 350.539 110.544C344.241 104.125 340.971 95.5868 340.729 84.9293V83.4155H419.268C422.719 83.4155 425.626 80.6906 425.747 77.1785C425.868 73.6663 425.747 76.2702 425.747 75.9068C425.444 65.3705 423.082 56.1663 418.723 48.3548C414.302 40.5434 408.247 34.5485 400.556 30.4309C392.866 26.3132 384.025 24.2544 374.034 24.2544C364.042 24.2544 354.959 26.5554 347.087 31.2181C339.276 35.8202 333.16 42.36 328.8 50.777C324.44 59.194 322.26 68.9431 322.26 80.0245C322.26 91.1059 324.501 100.734 328.982 109.211C344.847 139.125 389.838 141.971 412.364 118.173C413.636 116.841 414.787 115.448 415.877 113.995C416.967 112.542 418.056 110.968 418.965 109.333C421.205 105.457 423.082 101.461 423.749 97.9484M352.477 47.7493C358.774 42.36 365.98 39.6351 374.276 39.6351C382.572 39.6351 391.171 42.1783 397.226 47.3254C403.281 52.4725 406.733 59.6178 407.581 68.8826H341.759C342.606 60.1628 346.179 53.1386 352.416 47.7493H352.477Z" fill="#005BE4"/>
<path d="M456.751 79.9639C456.751 67.732 459.657 58.0434 465.531 50.8981C471.344 43.7527 479.398 40.2406 489.692 40.2406C499.986 40.2406 506.526 43.2077 511.612 49.0814C516.699 55.0157 519.182 63.5538 519.182 74.8168V99.22C527.72 93.5885 533.351 86.9276 536.016 79.2373C536.258 78.5712 536.439 77.9051 536.682 77.239V73.7874C536.682 56.7112 532.685 44.1766 524.631 36.1834C516.578 28.1903 505.92 24.1938 492.659 24.1938C479.398 24.1938 465.046 29.5225 456.751 40.2406L454.389 25.526H439.19V122.291C440.946 122.049 442.702 121.807 444.398 121.564C451.482 120.535 456.69 114.48 456.69 107.334V80.0245L456.751 79.9639Z" fill="#005BE4"/>
<path d="M439.19 131.011L500.894 130.587C516.093 130.466 529.597 121.322 535.652 107.395C535.652 107.273 535.713 107.213 535.773 107.092L520.574 112.178C520.574 112.178 533.351 108.424 536.56 89.834C536.56 89.834 526.69 115.933 439.129 131.071L439.19 131.011Z" fill="#005BE4"/>
</svg>
