<svg width="805" height="147" viewBox="0 0 805 147" fill="none" xmlns="http://www.w3.org/2000/svg">
<path d="M109.118 103.466L102.568 92.5408C102.097 91.7417 101.39 91.1049 100.559 90.7054C97.8418 89.4069 91.2917 85.9483 86.6645 80.8042C80.685 74.1617 76.3555 67.844 72.6463 65.5591C68.9371 63.2742 39.0524 52.6987 7.0898e-06 21.8964C7.0898e-06 21.8964 -0.0992364 37.7658 23.1858 53.0109L10.4082 50.9382C10.4082 50.9382 13.8073 62.3502 27.1059 69.8167L20.3077 70.029C20.3077 70.029 25.456 81.7531 37.8242 82.1651L28.6566 82.5771C28.6566 82.5771 39.5858 94.501 50.4033 93.677L45.5652 96.6861C45.5652 96.6861 49.1752 102.18 66.3816 102.704L60.7123 105.501C60.7123 105.501 69.3713 109.546 80.0896 108.41L77.1991 111.931C77.1991 111.931 79.7794 113.38 93.3758 112.967L97.3331 114.715C98.0278 115.028 98.7598 115.227 99.5165 115.315C102.134 115.627 109.069 117.188 109.069 125.104" fill="white"/>
<path d="M109.069 103.466L115.619 92.5408C116.09 91.7417 116.797 91.1049 117.628 90.7054C120.345 89.4069 126.895 85.9483 131.523 80.8042C137.502 74.1617 141.832 67.844 145.541 65.5591C149.25 63.2742 179.135 52.6987 218.187 21.8964C218.187 21.8964 218.286 37.7658 195.001 53.0109L207.779 50.9382C207.779 50.9382 204.38 62.3502 191.081 69.8167L197.879 70.029C197.879 70.029 192.731 81.7531 180.363 82.1651L189.53 82.5771C189.53 82.5771 178.601 94.501 167.784 93.677L172.622 96.6861C172.622 96.6861 169.012 102.18 151.805 102.704L157.475 105.501C157.475 105.501 148.816 109.546 138.097 108.41L140.988 111.931C140.988 111.931 138.408 113.38 124.811 112.967L120.854 114.715C120.159 115.028 119.427 115.227 118.671 115.315C116.053 115.627 109.118 117.188 109.118 125.104" fill="white"/>
<path d="M117.219 80.7418L114.44 81.4036C118.236 81.1289 121.102 80.6419 121.449 86.2231C121.152 85.9234 120.866 85.5988 120.531 85.3491C119.973 84.9245 119.328 84.8371 118.658 84.8246C116.189 84.7622 114.118 86.7599 113.845 89.6067C113.386 94.3013 116.847 97.7974 120.097 99.9699C121.028 100.594 122.07 100.756 122.839 101.456C116.859 105.014 106.364 100.319 103.61 92.7656C102.63 90.0562 104.801 85.0744 106.402 83.1266L104.293 80.4047C108.622 82.2526 113.398 76.3843 117.219 80.7668V80.7418Z" fill="white"/>
<path d="M98.2511 89.7191C98.2511 89.7191 107.741 96.4613 120.705 89.2696C133.656 82.0778 128.074 98.8212 128.074 98.8212L106.972 108.485L98.4868 101.743L98.2635 89.7191H98.2511Z" fill="white"/>
<path d="M99.6777 90.7055C99.6777 90.7055 102.481 91.4671 103.747 88.9075C105.012 86.348 105.285 94.5761 105.285 94.5761L103.201 96.1992L99.8514 94.7883" fill="white"/>
<path d="M117.616 90.7181C117.616 90.7181 113.82 92.0791 113.82 89.9939C113.82 87.9088 112.269 90.0564 112.269 90.0564L111.128 93.0904C111.128 93.0904 107.779 94.8509 111.661 94.4389L115.544 94.0393L117.604 90.7181H117.616Z" fill="white"/>
<path d="M325.363 138.925L358.789 49.3055L392.457 139.046C398.573 139.046 407.568 139.046 413.563 139.046C416.651 139.046 419.376 137.048 420.345 134.081L461.25 6.46124L445.776 6.46124C443.899 6.46124 442.264 7.67232 441.779 9.48894L411.531 105.136C410.441 108.951 405.173 109.254 403.659 105.56L369.144 18.3019H350.311L313.555 117.005L287.625 35.4344H268.187L302.111 138.986L302.353 138.865C310.164 138.865 317.855 138.865 325.424 138.865L325.363 138.925Z" fill="white"/>
<path d="M483.025 31.987H465.525V138.986C469.218 138.986 472.912 138.986 476.545 138.986C480.179 138.986 483.025 136.019 483.025 132.446V32.0475V31.987Z" fill="white"/>
<path d="M592.204 31.987H573.856L541.157 121.122L508.276 31.987H489.444L529.288 138.441C535.162 138.38 540.915 138.259 546.607 138.138C550.179 138.077 553.328 135.837 554.6 132.506L592.264 31.987H592.204Z" fill="white"/>
<path d="M690.785 105.681C684.245 112.645 676.676 118.821 668.017 122.879C652.818 129.963 631.079 129.661 618.726 117.005C612.428 110.586 609.158 102.048 608.916 91.3905V89.8767H687.455C690.906 89.8767 693.813 87.1518 693.934 83.6396C694.055 80.1275 693.934 82.7313 693.934 82.368C693.631 71.8316 691.269 62.6275 686.91 54.816C682.489 47.0046 676.434 41.0097 668.743 36.892C661.053 32.7744 652.212 30.7156 642.221 30.7156C632.229 30.7156 623.146 33.0166 615.274 37.6793C607.463 42.2814 601.347 48.8212 596.987 57.2382C592.627 65.6552 590.447 75.4043 590.447 86.4857C590.447 97.567 592.688 107.195 597.169 115.673C613.034 145.586 658.025 148.432 680.551 124.635C681.823 123.302 682.974 121.91 684.064 120.456C685.154 119.003 686.243 117.429 687.152 115.794C689.392 111.918 691.269 107.922 691.936 104.41M620.664 54.2105C626.961 48.8212 634.167 46.0962 642.463 46.0962C650.759 46.0962 659.358 48.6395 665.413 53.7866C671.468 58.9337 674.92 66.079 675.768 75.3438H609.946C610.793 66.624 614.366 59.5998 620.603 54.2105H620.664Z" fill="white"/>
<path d="M724.938 86.4251C724.938 74.1932 727.844 64.5046 733.718 57.3592C739.531 50.2139 747.585 46.7017 757.879 46.7017C768.173 46.7017 774.713 49.6689 779.799 55.5426C784.886 61.4769 787.369 70.015 787.369 81.278V105.681C795.907 100.05 801.538 93.3888 804.203 85.6984C804.445 85.0324 804.626 84.3663 804.869 83.7002V80.2486C804.869 63.1724 800.872 50.6377 792.818 42.6446C784.765 34.6515 774.107 30.655 760.846 30.655C747.585 30.655 733.233 35.9837 724.938 46.7017L722.576 31.9872H707.377V128.752C709.133 128.51 710.889 128.268 712.585 128.026C719.669 126.996 724.877 120.941 724.877 113.795V86.4856L724.938 86.4251Z" fill="white"/>
<path d="M707.377 137.472L769.081 137.048C784.28 136.927 797.784 127.783 803.839 113.856C803.839 113.735 803.9 113.674 803.96 113.553L788.761 118.64C788.761 118.64 801.538 114.885 804.747 96.2952C804.747 96.2952 794.877 122.394 707.316 137.532L707.377 137.472Z" fill="white"/>
</svg>
