<svg width="219" height="104" viewBox="0 0 219 104" fill="none" xmlns="http://www.w3.org/2000/svg">
<path d="M109.118 81.5695L102.568 70.6444C102.097 69.8453 101.39 69.2086 100.559 68.809C97.8418 67.5105 91.2917 64.0519 86.6645 58.9078C80.685 52.2654 76.3555 45.9476 72.6463 43.6627C68.9371 41.3778 39.0524 30.8024 7.0898e-06 0C7.0898e-06 0 -0.0992364 15.8694 23.1858 31.1145L10.4082 29.0419C10.4082 29.0419 13.8073 40.4539 27.1059 47.9203L20.3077 48.1326C20.3077 48.1326 25.456 59.8567 37.8242 60.2688L28.6566 60.6808C28.6566 60.6808 39.5858 72.6047 50.4033 71.7806L45.5652 74.7897C45.5652 74.7897 49.1752 80.2834 66.3816 80.8078L60.7123 83.6046C60.7123 83.6046 69.3713 87.65 80.0896 86.5138L77.1991 90.0348C77.1991 90.0348 79.7794 91.4832 93.3758 91.0711L97.3331 92.8191C98.0278 93.1313 98.7598 93.3311 99.5165 93.4185C102.134 93.7306 109.069 95.2913 109.069 103.207" fill="white"/>
<path d="M109.069 81.5695L115.619 70.6444C116.09 69.8453 116.797 69.2086 117.628 68.809C120.345 67.5105 126.895 64.0519 131.523 58.9078C137.502 52.2654 141.832 45.9476 145.541 43.6627C149.25 41.3778 179.135 30.8024 218.187 0C218.187 0 218.286 15.8694 195.001 31.1145L207.779 29.0419C207.779 29.0419 204.38 40.4539 191.081 47.9203L197.879 48.1326C197.879 48.1326 192.731 59.8567 180.363 60.2688L189.53 60.6808C189.53 60.6808 178.601 72.6047 167.784 71.7806L172.622 74.7897C172.622 74.7897 169.012 80.2834 151.805 80.8078L157.475 83.6046C157.475 83.6046 148.816 87.65 138.097 86.5138L140.988 90.0348C140.988 90.0348 138.408 91.4832 124.811 91.0711L120.854 92.8191C120.159 93.1313 119.427 93.3311 118.671 93.4185C116.053 93.7306 109.118 95.2913 109.118 103.207" fill="white"/>
<path d="M117.219 58.8454L114.44 59.5072C118.236 59.2325 121.102 58.7456 121.449 64.3267C121.152 64.027 120.866 63.7024 120.531 63.4527C119.973 63.0282 119.328 62.9408 118.658 62.9283C116.189 62.8659 114.118 64.8636 113.845 67.7103C113.386 72.405 116.847 75.901 120.097 78.0735C121.028 78.6978 122.07 78.8601 122.839 79.5593C116.859 83.1178 106.364 78.4231 103.61 70.8692C102.63 68.1598 104.801 63.178 106.402 61.2302L104.293 58.5083C108.622 60.3562 113.398 54.4879 117.219 58.8704V58.8454Z" fill="white"/>
<path d="M98.2511 67.8227C98.2511 67.8227 107.741 74.565 120.705 67.3732C133.656 60.1814 128.074 76.9248 128.074 76.9248L106.972 86.5888L98.4868 79.8465L98.2635 67.8227H98.2511Z" fill="white"/>
<path d="M99.6777 68.8091C99.6777 68.8091 102.481 69.5708 103.747 67.0112C105.012 64.4516 105.285 72.6797 105.285 72.6797L103.201 74.3029L99.8514 72.892" fill="white"/>
<path d="M117.616 68.8218C117.616 68.8218 113.82 70.1827 113.82 68.0976C113.82 66.0125 112.269 68.16 112.269 68.16L111.128 71.194C111.128 71.194 107.779 72.9545 111.661 72.5425L115.544 72.143L117.604 68.8218H117.616Z" fill="white"/>
</svg>
